<?xml version="1.0" encoding="UTF-8"?><svg id="Layer_1" xmlns="http://www.w3.org/2000/svg" viewBox="0 0 547.04 107.93"><defs><style>.cls-1{fill:#fff;}</style></defs><rect class="cls-1" width="107.93" height="107.93" rx="20" ry="20"/><path d="M55.94,80.04c-1.17-4.85-1.61-13.45-1.86-18.63,0-.13-.08-.27-.17-.31l-.81,11.78c-.16,2.33-.5,4.55-1.01,6.81-.19.85-.51,1.56-1.07,2.22-.94.95-1.97,1.69-3.12,2.4-2.22,1.28-4.56,2.3-7.11,2.91,5.41-10.24,8.69-21.27,9.66-32.79-6.01.26-11.51.97-17.3,2.09-.26-.75-.41-1.53-.48-2.35-.2-2.41-.16-4.78.05-7.31,3.61,1.3,7.16,2.11,10.89,2.64,2.36.34,4.62.6,7.07.57-2.62-1.88-4.92-3.9-6.87-6.36-3.78-4.79-4.37-10.31.03-14.99-1.44,4.77,2.14,10.59,5.1,13.96,2.68,3.05,5.21,5.07,8.59,7.41,5.82-.21,12.01-1.18,17.63-3.24.23,2.5.29,4.92.09,7.38-.07.8-.21,1.54-.5,2.27-5.86-1.11-11.38-1.87-17.27-2.06,1.02,11.5,4.24,22.49,9.63,32.79-2.47-.62-4.71-1.59-6.86-2.8-1.19-.73-2.28-1.47-3.26-2.44-.51-.58-.87-1.2-1.05-1.95Z"/><path d="M53.39,37.01c-3.86-.25-6.98-3.19-7.57-6.94-.64-4.09,1.94-7.96,5.91-9.05,2.6-.72,5.31-.16,7.43,1.53,2.82,2.24,3.77,6.07,2.42,9.4s-4.55,5.31-8.2,5.07Z"/><path d="M64.6,43.08c-1.52,2.07-4.08,4.67-6.28,6.11l-3.58-2.38c4.76-3.89,11.15-11.59,9.32-18.13,4.14,4.34,3.99,9.69.54,14.4Z"/><path class="cls-1" d="M166.77,21.02v64.74h-11.34V21.02h11.34Z"/><path class="cls-1" d="M190.32,85.76h-10.8v-43.75h10.01l.89,5.67c1.36-2.18,3.29-3.9,5.8-5.14s5.24-1.86,8.19-1.86c5.49,0,9.64,1.62,12.44,4.87,2.8,3.25,4.21,7.68,4.21,13.28v26.92h-10.8v-24.35c0-3.66-.83-6.39-2.48-8.19-1.65-1.8-3.9-2.7-6.73-2.7-3.37,0-5.99,1.06-7.88,3.19-1.89,2.12-2.83,4.96-2.83,8.5v23.56Z"/><path class="cls-1" d="M227.78,72.47h10.27c.06,1.89.77,3.4,2.13,4.52,1.36,1.12,3.25,1.68,5.67,1.68,2.6,0,4.56-.47,5.89-1.42,1.33-.94,1.99-2.21,1.99-3.81,0-1.06-.35-2.01-1.06-2.83-.71-.83-2.04-1.45-3.99-1.86l-7.88-1.86c-3.96-.89-6.89-2.32-8.81-4.3-1.92-1.98-2.88-4.71-2.88-8.19,0-2.83.75-5.28,2.26-7.35,1.51-2.07,3.56-3.65,6.15-4.74,2.6-1.09,5.58-1.64,8.95-1.64s6.11.59,8.59,1.77c2.48,1.18,4.41,2.83,5.8,4.96,1.39,2.13,2.11,4.61,2.17,7.44h-10.27c0-1.89-.59-3.38-1.77-4.47-1.18-1.09-2.83-1.64-4.96-1.64s-3.78.47-4.96,1.42c-1.18.95-1.77,2.21-1.77,3.81,0,2.42,1.89,4.07,5.67,4.96l7.88,1.86c3.66.83,6.42,2.16,8.28,3.99,1.86,1.83,2.79,4.43,2.79,7.79,0,2.95-.77,5.51-2.3,7.66-1.54,2.16-3.69,3.81-6.46,4.96-2.78,1.15-5.96,1.73-9.57,1.73-5.43,0-9.76-1.33-12.97-3.99-3.22-2.66-4.83-6.14-4.83-10.45Z"/><path class="cls-1" d="M301.82,42.01h10.8v43.75h-10.01l-.8-5.84c-1.3,2.07-3.25,3.75-5.84,5.05-2.6,1.3-5.37,1.95-8.32,1.95-5.02,0-8.95-1.59-11.78-4.78s-4.25-7.44-4.25-12.75v-27.37h10.8v23.56c0,4.13.8,7.11,2.39,8.94,1.59,1.83,3.9,2.75,6.91,2.75,3.42,0,5.96-1.02,7.62-3.06,1.65-2.04,2.48-5.12,2.48-9.25v-22.94Z"/><path class="cls-1" d="M351.23,41.83v10.01h-3.99c-3.96,0-7.06,1.05-9.3,3.15-2.24,2.1-3.37,5.27-3.37,9.52v21.26h-10.8v-43.66h10.18l.89,9.03h-1.06c.59-2.89,1.98-5.25,4.16-7.08,2.18-1.83,5.02-2.75,8.5-2.75.77,0,1.54.03,2.3.09.77.06,1.59.21,2.48.44Z"/><path class="cls-1" d="M369.83,86.91c-4.6,0-8.25-1.25-10.94-3.76-2.69-2.51-4.03-5.8-4.03-9.88s1.4-7.22,4.21-9.61c2.8-2.39,6.8-3.79,12-4.21l13.11-1.06v-.97c0-2.01-.37-3.62-1.11-4.83-.74-1.21-1.79-2.1-3.14-2.66-1.36-.56-2.95-.84-4.78-.84-3.19,0-5.64.63-7.35,1.9s-2.57,3.05-2.57,5.36h-9.21c0-3.19.81-5.95,2.43-8.28,1.62-2.33,3.93-4.15,6.91-5.45,2.98-1.3,6.42-1.95,10.32-1.95s7.35.69,10.18,2.08c2.83,1.39,5.02,3.45,6.55,6.2,1.53,2.74,2.3,6.15,2.3,10.23v26.57h-9.48l-.8-6.46c-.95,2.24-2.76,4.07-5.45,5.49s-5.74,2.13-9.17,2.13ZM373.29,78.76c3.36,0,6.04-.94,8.01-2.83,1.98-1.89,2.97-4.52,2.97-7.88v-2.3l-9.12.71c-3.37.3-5.76.99-7.17,2.08s-2.12,2.52-2.12,4.3c0,1.95.65,3.42,1.95,4.43,1.3,1,3.13,1.5,5.49,1.5Z"/><path class="cls-1" d="M416.15,85.76h-10.8v-43.75h10.01l.89,5.67c1.36-2.18,3.29-3.9,5.8-5.14s5.24-1.86,8.19-1.86c5.49,0,9.64,1.62,12.44,4.87,2.8,3.25,4.21,7.68,4.21,13.28v26.92h-10.8v-24.35c0-3.66-.83-6.39-2.48-8.19-1.65-1.8-3.9-2.7-6.73-2.7-3.37,0-5.99,1.06-7.88,3.19-1.89,2.12-2.83,4.96-2.83,8.5v23.56Z"/><path class="cls-1" d="M454.94,63.79c0-4.49.93-8.47,2.79-11.96,1.86-3.48,4.43-6.21,7.71-8.19,3.28-1.98,7.07-2.97,11.38-2.97,5.96,0,10.85,1.55,14.66,4.65,3.81,3.1,6.01,7.28,6.6,12.53h-10.8c-.65-2.48-1.85-4.35-3.59-5.62-1.74-1.27-3.91-1.9-6.51-1.9-2.24,0-4.24.55-5.98,1.64s-3.09,2.64-4.03,4.65c-.95,2.01-1.42,4.4-1.42,7.17s.44,5.17,1.33,7.17c.89,2.01,2.17,3.56,3.85,4.65,1.68,1.09,3.68,1.64,5.98,1.64,2.72,0,4.97-.65,6.77-1.95,1.8-1.3,3-3.16,3.59-5.58h10.89c-.47,3.42-1.67,6.42-3.59,8.99-1.92,2.57-4.38,4.58-7.39,6.02-3.01,1.45-6.44,2.17-10.27,2.17-4.43,0-8.3-.96-11.6-2.88-3.31-1.92-5.86-4.61-7.66-8.06-1.8-3.45-2.7-7.51-2.7-12.18Z"/><path class="cls-1" d="M525.78,86.91c-4.31,0-8.13-.99-11.47-2.97-3.34-1.98-5.95-4.69-7.84-8.15-1.89-3.45-2.83-7.42-2.83-11.91s.92-8.56,2.75-12.04c1.83-3.48,4.4-6.21,7.7-8.19,3.31-1.98,7.08-2.97,11.34-2.97s8.24.93,11.42,2.79c3.19,1.86,5.65,4.44,7.39,7.75,1.74,3.31,2.61,7.26,2.61,11.87v3.28l-37.55.09.18-6.91h26.66c0-3.01-.96-5.43-2.88-7.26-1.92-1.83-4.5-2.75-7.75-2.75-2.54,0-4.68.53-6.42,1.59s-3.05,2.66-3.94,4.78c-.89,2.12-1.33,4.72-1.33,7.79,0,4.72,1.02,8.3,3.05,10.72,2.04,2.42,5.06,3.63,9.08,3.63,2.95,0,5.39-.56,7.31-1.68,1.92-1.12,3.17-2.71,3.76-4.78h10.01c-.95,4.78-3.29,8.53-7.04,11.25-3.75,2.72-8.49,4.07-14.21,4.07Z"/></svg>