<?xml version="1.0" encoding="UTF-8"?><svg id="Layer_1" xmlns="http://www.w3.org/2000/svg" viewBox="0 0 107.93 107.93"><defs><style>.cls-1{fill:#fff;}</style></defs><rect class="cls-1" width="107.93" height="107.93" rx="20" ry="20"/><path d="M55.94,80.04c-1.17-4.85-1.61-13.45-1.86-18.63,0-.13-.08-.27-.17-.31l-.81,11.78c-.16,2.33-.5,4.55-1.01,6.81-.19.85-.51,1.56-1.07,2.22-.94.95-1.97,1.69-3.12,2.4-2.22,1.28-4.56,2.3-7.11,2.91,5.41-10.24,8.69-21.27,9.66-32.79-6.01.26-11.51.97-17.3,2.09-.26-.75-.41-1.53-.48-2.35-.2-2.41-.16-4.78.05-7.31,3.61,1.3,7.16,2.11,10.89,2.64,2.36.34,4.62.6,7.07.57-2.62-1.88-4.92-3.9-6.87-6.36-3.78-4.79-4.37-10.31.03-14.99-1.44,4.77,2.14,10.59,5.1,13.96,2.68,3.05,5.21,5.07,8.59,7.41,5.82-.21,12.01-1.18,17.63-3.24.23,2.5.29,4.92.09,7.38-.07.8-.21,1.54-.5,2.27-5.86-1.11-11.38-1.87-17.27-2.06,1.02,11.5,4.24,22.49,9.63,32.79-2.47-.62-4.71-1.59-6.86-2.8-1.19-.73-2.28-1.47-3.26-2.44-.51-.58-.87-1.2-1.05-1.95Z"/><path d="M53.39,37.01c-3.86-.25-6.98-3.19-7.57-6.94-.64-4.09,1.94-7.96,5.91-9.05,2.6-.72,5.31-.16,7.43,1.53,2.82,2.24,3.77,6.07,2.42,9.4s-4.55,5.31-8.2,5.07Z"/><path d="M64.6,43.08c-1.52,2.07-4.08,4.67-6.28,6.11l-3.58-2.38c4.76-3.89,11.15-11.59,9.32-18.13,4.14,4.34,3.99,9.69.54,14.4Z"/></svg>