<?xml version="1.0" encoding="UTF-8"?><svg id="Layer_1" xmlns="http://www.w3.org/2000/svg" viewBox="0 0 401.67 107.86"><defs><style>.cls-1{fill:#fff;}</style></defs><rect class="cls-1" width="107.86" height="107.86" rx="20" ry="20"/><path d="M55.9,79.99c-1.17-4.85-1.61-13.44-1.86-18.62,0-.13-.08-.27-.17-.31l-.81,11.77c-.16,2.33-.5,4.55-1.01,6.81-.19.85-.51,1.56-1.07,2.21-.94.95-1.97,1.69-3.12,2.39-2.22,1.28-4.55,2.3-7.1,2.91,5.4-10.24,8.69-21.26,9.66-32.77-6,.26-11.5.97-17.29,2.09-.26-.75-.41-1.53-.48-2.34-.2-2.41-.16-4.78.05-7.31,3.61,1.3,7.15,2.11,10.88,2.64,2.35.34,4.61.6,7.06.57-2.61-1.88-4.91-3.9-6.86-6.36-3.78-4.78-4.37-10.3.03-14.98-1.44,4.77,2.13,10.59,5.1,13.95,2.68,3.04,5.21,5.06,8.58,7.41,5.82-.21,12-1.18,17.62-3.24.23,2.5.29,4.92.09,7.37-.07.8-.21,1.54-.5,2.27-5.86-1.11-11.37-1.87-17.26-2.06,1.02,11.5,4.24,22.48,9.63,32.77-2.46-.62-4.71-1.59-6.86-2.8-1.19-.73-2.28-1.47-3.26-2.44-.51-.58-.87-1.19-1.05-1.94Z"/><path d="M53.36,36.98c-3.86-.25-6.97-3.18-7.56-6.93-.64-4.09,1.94-7.95,5.91-9.05,2.59-.72,5.31-.16,7.43,1.52,2.82,2.24,3.76,6.06,2.42,9.39s-4.55,5.31-8.19,5.07Z"/><path d="M64.56,43.05c-1.52,2.07-4.08,4.66-6.27,6.1l-3.58-2.38c4.75-3.88,11.15-11.58,9.31-18.12,4.14,4.34,3.99,9.69.54,14.39Z"/><path class="cls-1" d="M166.88,20.47v65.76h-11.52V20.47h11.52Z"/><path class="cls-1" d="M190.81,86.23h-10.97v-44.44h10.17l.9,5.76c1.38-2.22,3.34-3.96,5.89-5.22,2.55-1.26,5.32-1.89,8.32-1.89,5.58,0,9.79,1.65,12.64,4.95,2.85,3.3,4.27,7.8,4.27,13.49v27.35h-10.98v-24.74c0-3.72-.84-6.49-2.52-8.32-1.68-1.83-3.96-2.74-6.84-2.74-3.42,0-6.09,1.08-8.01,3.24-1.92,2.16-2.88,5.04-2.88,8.64v23.93Z"/><path class="cls-1" d="M228.86,72.73h10.44c.06,1.92.78,3.45,2.16,4.59,1.38,1.14,3.3,1.71,5.76,1.71,2.64,0,4.63-.48,5.98-1.44,1.35-.96,2.02-2.25,2.02-3.87,0-1.08-.36-2.04-1.08-2.88-.72-.84-2.07-1.47-4.05-1.89l-8.01-1.89c-4.02-.9-7-2.35-8.95-4.36-1.95-2.01-2.92-4.78-2.92-8.32,0-2.88.76-5.37,2.29-7.47s3.61-3.7,6.25-4.81c2.64-1.11,5.67-1.66,9.09-1.66s6.21.6,8.73,1.8c2.52,1.2,4.48,2.88,5.89,5.04,1.41,2.16,2.14,4.68,2.2,7.56h-10.44c0-1.92-.6-3.43-1.8-4.54-1.2-1.11-2.88-1.66-5.04-1.66s-3.84.48-5.04,1.44c-1.2.96-1.8,2.25-1.8,3.87,0,2.46,1.92,4.14,5.76,5.04l8.01,1.89c3.72.84,6.52,2.19,8.41,4.05,1.89,1.86,2.83,4.5,2.83,7.92,0,3-.78,5.59-2.34,7.78-1.56,2.19-3.75,3.87-6.57,5.04-2.82,1.17-6.06,1.75-9.72,1.75-5.52,0-9.91-1.35-13.18-4.05-3.27-2.7-4.9-6.24-4.9-10.61Z"/><path class="cls-1" d="M304.07,41.79h10.97v44.44h-10.17l-.81-5.94c-1.32,2.1-3.3,3.81-5.94,5.13-2.64,1.32-5.46,1.98-8.46,1.98-5.1,0-9.09-1.62-11.96-4.86-2.88-3.24-4.32-7.56-4.32-12.95v-27.8h10.98v23.93c0,4.2.81,7.23,2.43,9.09s3.96,2.79,7.02,2.79c3.48,0,6.06-1.04,7.74-3.1,1.68-2.07,2.52-5.2,2.52-9.4v-23.3Z"/><path class="cls-1" d="M354.26,41.61v10.17h-4.05c-4.02,0-7.17,1.07-9.45,3.19-2.28,2.13-3.42,5.35-3.42,9.67v21.59h-10.97v-44.35h10.35l.9,9.18h-1.08c.6-2.94,2.01-5.34,4.23-7.2,2.22-1.86,5.1-2.79,8.64-2.79.78,0,1.56.03,2.34.09.78.06,1.62.21,2.52.45Z"/><path class="cls-1" d="M380.08,87.4c-4.38,0-8.26-1-11.65-3.01-3.39-2.01-6.04-4.77-7.96-8.28-1.92-3.51-2.88-7.54-2.88-12.1s.93-8.7,2.79-12.23c1.86-3.54,4.47-6.31,7.83-8.32,3.36-2.01,7.2-3.01,11.52-3.01s8.37.94,11.6,2.83c3.24,1.89,5.74,4.51,7.51,7.87,1.77,3.36,2.65,7.38,2.65,12.05v3.33l-38.14.09.18-7.02h27.08c0-3.06-.98-5.52-2.92-7.38-1.95-1.86-4.57-2.79-7.87-2.79-2.58,0-4.75.54-6.52,1.62-1.77,1.08-3.1,2.7-4,4.86-.9,2.16-1.35,4.8-1.35,7.92,0,4.8,1.03,8.43,3.1,10.88,2.07,2.46,5.14,3.69,9.22,3.69,3,0,5.47-.57,7.42-1.71,1.95-1.14,3.22-2.76,3.82-4.86h10.17c-.96,4.86-3.34,8.67-7.15,11.43-3.81,2.76-8.62,4.14-14.44,4.14Z"/></svg>