<svg width="182" height="48" viewBox="0 0 182 48" fill="none" xmlns="http://www.w3.org/2000/svg">
<path fill-rule="evenodd" clip-rule="evenodd" d="M48.0546 24C48.0359 30.1969 45.6281 36.1478 41.3325 40.6142C37.0368 45.0806 31.1843 47.7185 24.9929 47.9787C18.8015 48.239 12.7482 46.1017 8.09283 42.0115C3.43752 37.9214 0.5388 32.1935 0 26.0201H31.8146V21.9799H0C0.5388 15.8065 3.43752 10.0787 8.09283 5.9885C12.7482 1.89835 18.8015 -0.239009 24.9929 0.0212616C31.1843 0.281532 37.0368 2.91939 41.3325 7.38581C45.6281 11.8522 48.0359 17.8032 48.0546 24ZM137.289 43.6677C145.629 43.6677 151.099 39.1735 151.099 32.407C151.099 26.1258 146.982 23.1497 140.755 22.1192L135.231 21.1993C131.006 20.4955 128.191 18.6555 128.191 14.5937C128.191 10.4791 131.332 7.33965 137.289 7.33965C143.085 7.33965 146.064 10.2629 146.388 14.4328H150.558C150.234 8.90816 146.009 3.98404 137.347 3.98404C128.791 3.98404 124.078 8.80247 124.078 14.7571C124.078 21.0912 128.356 24.0144 134.205 24.9896L139.783 25.8568C144.44 26.6686 147.039 28.5638 147.039 32.5704C147.039 37.2807 143.196 40.3121 137.345 40.3121C131.28 40.3121 127.496 37.3888 127.163 32.407H123.045C123.372 38.8925 128.354 43.6677 137.289 43.6677ZM75.7979 42.9086H60.6412V4.78391H75.2646C81.7092 4.78391 86.2034 8.57428 86.2034 14.6322C86.3039 16.565 85.7012 18.4688 84.5068 19.9918C83.3124 21.5147 81.607 22.5537 79.706 22.9167V23.08C81.9215 23.3623 83.9474 24.475 85.3742 26.1934C86.801 27.9118 87.5223 30.1077 87.3924 32.3374C87.3948 38.8925 82.574 42.911 75.8051 42.911L75.7979 42.9086ZM74.7146 21.5307C79.3192 21.5307 82.1344 19.0398 82.1344 15.1414V14.5937C82.1344 10.6953 79.3192 8.25962 74.7146 8.25962H64.703V21.5259L74.7146 21.5307ZM75.195 39.4521C80.2392 39.4521 83.3186 36.6898 83.3186 32.4671V31.9266C83.3186 27.5406 80.1768 24.8887 75.1517 24.8887H64.703V39.4449L75.195 39.4521ZM120.18 42.9182H115.856L112.606 32.5776H97.4496L94.1997 42.9182H90.0754L102.595 4.78391H107.524L120.18 42.9182ZM105.247 8.96341H104.922L98.5305 29.1571H111.583L105.247 8.96341ZM157.2 42.911V4.78391H181.679V8.31486H161.261V21.4154H180.055V24.8815H161.261V39.3921H181.679V42.911H157.2Z" fill="#0052FF"/>
</svg>
